<svg width="28" height="28" viewBox="0 0 28 28" fill="none" xmlns="http://www.w3.org/2000/svg">
<path d="M14.0003 10.0365C12.9395 10.0365 11.922 10.4579 11.1719 11.208C10.4218 11.9582 10.0003 12.9756 10.0003 14.0365C10.0003 15.0973 10.4218 16.1147 11.1719 16.8649C11.922 17.615 12.9395 18.0365 14.0003 18.0365C15.0612 18.0365 16.0786 17.615 16.8288 16.8649C17.5789 16.1147 18.0003 15.0973 18.0003 14.0365C18.0003 12.9756 17.5789 11.9582 16.8288 11.208C16.0786 10.4579 15.0612 10.0365 14.0003 10.0365ZM14.0003 7.36979C15.7684 7.36979 17.4641 8.07217 18.7144 9.32241C19.9646 10.5727 20.667 12.2683 20.667 14.0365C20.667 15.8046 19.9646 17.5003 18.7144 18.7505C17.4641 20.0007 15.7684 20.7031 14.0003 20.7031C12.2322 20.7031 10.5365 20.0007 9.28628 18.7505C8.03604 17.5003 7.33366 15.8046 7.33366 14.0365C7.33366 12.2683 8.03604 10.5727 9.28628 9.32241C10.5365 8.07217 12.2322 7.36979 14.0003 7.36979ZM22.667 7.03646C22.667 7.47849 22.4914 7.90241 22.1788 8.21497C21.8663 8.52753 21.4424 8.70312 21.0003 8.70312C20.5583 8.70312 20.1344 8.52753 19.8218 8.21497C19.5093 7.90241 19.3337 7.47849 19.3337 7.03646C19.3337 6.59443 19.5093 6.17051 19.8218 5.85795C20.1344 5.54539 20.5583 5.36979 21.0003 5.36979C21.4424 5.36979 21.8663 5.54539 22.1788 5.85795C22.4914 6.17051 22.667 6.59443 22.667 7.03646ZM14.0003 3.36979C10.7017 3.36979 10.163 3.37912 8.62833 3.44712C7.58299 3.49646 6.88166 3.63646 6.23099 3.88979C5.65233 4.11379 5.23499 4.38179 4.79099 4.82712C4.37367 5.23032 4.0528 5.72257 3.85233 6.26712C3.59899 6.92046 3.45899 7.62046 3.41099 8.66446C3.34166 10.1365 3.33366 10.6511 3.33366 14.0365C3.33366 17.3351 3.34299 17.8738 3.41099 19.4085C3.46033 20.4525 3.60033 21.1551 3.85233 21.8045C4.07899 22.3845 4.34566 22.8018 4.78833 23.2445C5.23766 23.6925 5.65499 23.9605 6.22833 24.1818C6.88699 24.4365 7.58833 24.5778 8.62833 24.6258C10.1003 24.6951 10.615 24.7031 14.0003 24.7031C17.299 24.7031 17.8377 24.6938 19.3723 24.6258C20.415 24.5765 21.1177 24.4365 21.7683 24.1845C22.3457 23.9591 22.7657 23.6911 23.2083 23.2485C23.6577 22.7991 23.9257 22.3818 24.147 21.8085C24.4003 21.1511 24.5417 20.4485 24.5897 19.4085C24.659 17.9365 24.667 17.4218 24.667 14.0365C24.667 10.7378 24.6577 10.1991 24.5897 8.66446C24.5403 7.62179 24.4003 6.91779 24.147 6.26712C23.946 5.72313 23.6258 5.23107 23.2097 4.82712C22.8066 4.40959 22.3143 4.08868 21.7697 3.88846C21.1163 3.63512 20.415 3.49513 19.3723 3.44712C17.9003 3.37779 17.3857 3.36979 14.0003 3.36979ZM14.0003 0.703125C17.623 0.703125 18.075 0.716458 19.4963 0.783125C20.9163 0.849792 21.883 1.07246 22.7337 1.40313C23.6137 1.74179 24.355 2.20046 25.0963 2.94046C25.7743 3.60699 26.2989 4.41324 26.6337 5.30312C26.963 6.15246 27.187 7.12046 27.2537 8.54046C27.3163 9.96179 27.3337 10.4138 27.3337 14.0365C27.3337 17.6591 27.3203 18.1111 27.2537 19.5325C27.187 20.9525 26.963 21.9191 26.6337 22.7698C26.2999 23.6602 25.7752 24.4666 25.0963 25.1325C24.4296 25.8102 23.6234 26.3348 22.7337 26.6698C21.8843 26.9991 20.9163 27.2231 19.4963 27.2898C18.075 27.3525 17.623 27.3698 14.0003 27.3698C10.3777 27.3698 9.92566 27.3565 8.50432 27.2898C7.08432 27.2231 6.11766 26.9991 5.26699 26.6698C4.37676 26.3358 3.57036 25.8111 2.90433 25.1325C2.2262 24.466 1.70157 23.6597 1.36699 22.7698C1.03633 21.9205 0.813659 20.9525 0.746992 19.5325C0.684325 18.1111 0.666992 17.6591 0.666992 14.0365C0.666992 10.4138 0.680325 9.96179 0.746992 8.54046C0.813659 7.11912 1.03633 6.15379 1.36699 5.30312C1.70064 4.4127 2.2254 3.60622 2.90433 2.94046C3.57055 2.2621 4.3769 1.73743 5.26699 1.40313C6.11766 1.07246 7.08299 0.849792 8.50432 0.783125C9.92566 0.720458 10.3777 0.703125 14.0003 0.703125Z" fill="white"/>
</svg>
