<svg width="28" height="28" viewBox="0 0 28 23" fill="none" xmlns="http://www.w3.org/2000/svg">
<path d="M19.4 3.39989C18.3867 3.39972 17.4137 3.79738 16.6906 4.50731C15.9674 5.21724 15.5519 6.18268 15.5334 7.19589L15.496 9.29589C15.4939 9.40864 15.4679 9.51966 15.4198 9.62165C15.3716 9.72365 15.3025 9.81432 15.2169 9.88773C15.1313 9.96113 15.0311 10.0156 14.923 10.0476C14.8148 10.0795 14.7011 10.0883 14.5894 10.0732L12.508 9.79056C9.76938 9.41722 7.14538 8.15589 4.62805 6.05855C3.83071 10.4719 5.38805 13.5292 9.13871 15.8879L11.468 17.3519C11.5787 17.4214 11.6707 17.5171 11.7358 17.6304C11.801 17.7437 11.8374 17.8712 11.8419 18.0019C11.8464 18.1325 11.8188 18.2622 11.7615 18.3797C11.7042 18.4972 11.619 18.5989 11.5134 18.6759L9.39071 20.2266C10.6534 20.3052 11.852 20.2492 12.8467 20.0519C19.1374 18.7959 23.32 14.0626 23.32 6.25455C23.32 5.61722 21.9707 3.39989 19.4 3.39989ZM12.8667 7.14655C12.89 5.86129 13.2919 4.61145 14.0221 3.55352C14.7524 2.49559 15.7784 1.67658 16.9719 1.19904C18.1654 0.721507 19.4733 0.606661 20.7317 0.868884C21.9902 1.13111 23.1433 1.75875 24.0467 2.67322C24.9947 2.66655 25.8014 2.90655 27.6054 1.81322C27.1587 3.99989 26.9387 4.94922 25.9867 6.25455C25.9867 16.4439 19.724 21.3986 13.3694 22.6666C9.01205 23.5359 2.67605 22.1079 0.860046 20.2119C1.78538 20.1399 5.54538 19.7359 7.71871 18.1452C5.88005 16.9332 -1.43862 12.6266 3.37071 1.04789C5.62805 3.68389 7.91738 5.47855 10.2374 6.43055C11.7814 7.06389 12.16 7.05055 12.868 7.14789L12.8667 7.14655Z" fill="white"/>
</svg>
