<svg width="28" height="22" viewBox="0 0 28 22" fill="none" xmlns="http://www.w3.org/2000/svg">
<path d="M24.1417 4.36321C24.0403 3.96587 23.7523 3.66587 23.423 3.57387C22.8403 3.40987 20.0003 3.03654 14.0003 3.03654C8.00033 3.03654 5.16299 3.40987 4.57499 3.57387C4.24966 3.66454 3.96166 3.96454 3.85899 4.36321C3.71366 4.92854 3.33366 7.29787 3.33366 11.0365C3.33366 14.7752 3.71366 17.1432 3.85899 17.7112C3.96033 18.1072 4.24833 18.4072 4.57633 18.4979C5.16299 18.6632 8.00033 19.0365 14.0003 19.0365C20.0003 19.0365 22.839 18.6632 23.4257 18.4992C23.751 18.4085 24.039 18.1085 24.1417 17.7099C24.287 17.1445 24.667 14.7699 24.667 11.0365C24.667 7.30321 24.287 4.92987 24.1417 4.36321ZM26.7243 3.70054C27.3337 6.07654 27.3337 11.0365 27.3337 11.0365C27.3337 11.0365 27.3337 15.9965 26.7243 18.3725C26.3857 19.6859 25.395 20.7192 24.1403 21.0685C21.8617 21.7032 14.0003 21.7032 14.0003 21.7032C14.0003 21.7032 6.14299 21.7032 3.86033 21.0685C2.60033 20.7139 1.61099 19.6819 1.27633 18.3725C0.666992 15.9965 0.666992 11.0365 0.666992 11.0365C0.666992 11.0365 0.666992 6.07654 1.27633 3.70054C1.61499 2.38721 2.60566 1.35387 3.86033 1.00454C6.14299 0.369873 14.0003 0.369873 14.0003 0.369873C14.0003 0.369873 21.8617 0.369873 24.1403 1.00454C25.4003 1.35921 26.3897 2.39121 26.7243 3.70054ZM11.3337 15.7032V6.36987L19.3337 11.0365L11.3337 15.7032Z" fill="white"/>
</svg>
